<?xml version="1.0" encoding="UTF-8" standalone="no"?>
<!-- Created with Inkscape (http://www.inkscape.org/) -->

<svg
   width="58.200451mm"
   height="66.596008mm"
   viewBox="0 0 58.200451 66.596008"
   version="1.1"
   id="svg5"
   xml:space="preserve"
   xmlns="http://www.w3.org/2000/svg"
   xmlns:svg="http://www.w3.org/2000/svg">
   <defs
     id="defs2" /><g
     id="layer1"
     transform="translate(-30.029273,-202.88958)"><path
       style="opacity:1;fill:none;stroke:#000000;stroke-width:1.5;stroke-linecap:round;stroke-opacity:1;stop-color:#000000"
       d="m 41.297797,215.59888 h 35.705388 l -0.430186,7.31315 -26.49942,0.17208 0.172074,6.88296 25.380939,0.086 -1.806778,21.76738 -14.279502,3.6996 -15.059144,-4.12978 -0.946406,-10.75464 7.399189,-0.086 0.60226,5.59241 8.004101,2.23696 7.56861,-2.40904 0.516221,-9.03389 -24.43453,0.34415 -1.892816,-21.68135 z"
       id="path4578" /><path
       style="opacity:1;fill:#ffffff;fill-opacity:1;stroke:#000000;stroke-width:1.5;stroke-linecap:round;stroke-linejoin:round;stroke-opacity:1;stop-color:#000000"
       d="m 30.779267,203.63958 28.393924,0.48669 -0.0227,11.47261 H 41.297797 l 1.892816,21.68134 16.297487,-0.22954 0.05221,11.32832 -8.004104,-2.23696 -0.602261,-5.59241 -7.399189,0.086 0.946407,10.75464 15.059147,4.12978 -0.06292,13.21555 -23.709452,-7.42216 -4.988668,-57.67386 z"
       id="path6034" /><path
       style="opacity:1;fill:none;stroke:#000000;stroke-width:1.5;stroke-linecap:round;stroke-linejoin:round;stroke-opacity:1;stop-color:#000000"
       d="m 59.173195,204.12627 28.306533,-0.36502 -5.110338,57.43051 -22.891998,7.54384"
       id="path6042" /></g></svg>
