<svg xmlns="http://www.w3.org/2000/svg" fill="none" viewBox="0 0 14 14" height="80" width="80"><path stroke="#f6f6f6" stroke-linecap="round" stroke-linejoin="round" d="M5.71 4.31C3.79 3 2 4 0.5 5.54L3.82 7.54"></path><path stroke="#f6f6f6" stroke-linecap="round" stroke-linejoin="round" d="M9.69002 8.29001C11 10.21 10 12 8.46002 13.5L6.46002 10.18"></path><path stroke="#f6f6f6" stroke-linecap="round" stroke-linejoin="round" d="M3.82001 7.53L6.47001 10.18C8.59001 8.91 11 7.68 12.1 6.54C14.48 4.16 13.1 0.900003 13.1 0.900003C13.1 0.900003 9.84001 -0.479997 7.46001 1.9C6.32001 3 5.08001 5.42 3.82001 7.53Z"></path><path stroke="#f6f6f6" stroke-linecap="round" stroke-linejoin="round" d="M5.28003 5.02L8.98003 8.72"></path><path stroke="#f6f6f6" stroke-linecap="round" stroke-linejoin="round" d="M10.5 4C10.7761 4 11 3.77614 11 3.5C11 3.22386 10.7761 3 10.5 3C10.2239 3 10 3.22386 10 3.5C10 3.77614 10.2239 4 10.5 4Z"></path><path stroke="#f6f6f6" stroke-linecap="round" stroke-linejoin="round" d="M3.68 12.44C3.1 13 0.5 13.5 0.5 13.5C0.5 13.5 1 10.9 1.56 10.32C1.69732 10.1726 1.86292 10.0544 2.04692 9.97244C2.23092 9.89046 2.42955 9.84638 2.63095 9.84282C2.83236 9.83927 3.03242 9.87632 3.2192 9.95176C3.40597 10.0272 3.57564 10.1395 3.71808 10.2819C3.86051 10.4244 3.9728 10.594 4.04825 10.7808C4.12369 10.9676 4.16074 11.1676 4.15718 11.3691C4.15363 11.5705 4.10955 11.7691 4.02756 11.9531C3.94558 12.1371 3.82737 12.3027 3.68 12.44V12.44Z"></path></svg>